<svg xmlns="http://www.w3.org/2000/svg" width="36" height="29" viewBox="0 0 36 29"><g><g><path fill="#e9e9e9" d="M8.845 28.987c4.022 0 7.421-3.088 7.421-7.355 0-4.603-3.399-7.354-7.421-7.354-1.643 0-3.173.618-4.306 1.516-.227-.674-.34-1.404-.34-2.414 0-4.491 4.079-9.32 8.838-11.284L11.961.019C3.746 3.836.007 10.292.007 17.759c0 1.852.34 5.052 1.982 7.578 1.417 2.19 3.456 3.65 6.856 3.65zm19.715 0c4.08 0 7.422-3.088 7.422-7.355 0-4.603-3.342-7.354-7.422-7.354-1.643 0-3.116.618-4.305 1.516-.227-.674-.34-1.404-.34-2.414 0-4.491 4.079-9.32 8.838-11.284L31.676.019c-8.215 3.817-11.954 10.273-11.954 17.74 0 1.852.34 5.052 1.983 7.578 1.417 2.19 3.513 3.65 6.855 3.65z"/></g></g></svg>